<svg width="321" height="217" viewBox="0 0 321 217" xmlns="http://www.w3.org/2000/svg" xmlns:xlink="http://www.w3.org/1999/xlink"><title>未营业 copy</title><defs><path d="M171.8 85L124 14C115 .6 100.6.6 91.6 14L43.8 85" id="a"/><mask id="b" x="0" y="0" width="128" height="81" fill="#fff"><use xlink:href="#a"/></mask></defs><g fill="none" fill-rule="evenodd"><path d="M-1-4.2h330V220H-1z"/><g transform="rotate(5 130.936 724.876)"><rect fill="#A77763" x=".1" y="88.3" width="215.6" height="106.3" rx="20"/><rect fill="#87533F" x=".1" y="88.3" width="215.6" height="100.2" rx="20"/><use stroke="#8C533F" mask="url(#b)" stroke-width="10" stroke-linecap="square" stroke-dasharray="5,8" xlink:href="#a"/><path d="M23.8 140.5c0 2.2.3 4 1 5.8.6 1.6 1.5 3 2.6 4.2 1 1.2 2.4 2 4 2.7 1.5.6 3 1 5 1 1 0 2-.3 3-.7 1-.4 2-1 2.7-1.6 1-.8 1.7-1.5 2.4-2.3L46 147l2.2 1.5c-.6 1-1.4 2-2.2 3-1 1-1.8 1.7-3 2.4-1 .6-2.3 1.2-3.7 1.7-1.4.4-3 .6-4.8.6-1.6 0-3.2-.2-4.7-.6-1.5-.4-2.8-1-4-1.6-1.3-.6-2.4-1.4-3.4-2.4s-1.8-2-2.5-3.2c-.7-1-1.3-2.4-1.6-3.7-.4-1.4-.6-2.7-.6-4.2 0-1.4.2-2.8.6-4 .4-1.4 1-2.7 1.6-4 .7-1 1.5-2 2.5-3s2-2 3.4-2.7c1-.7 2.5-1.2 4-1.6 1.5-.4 3-.6 4.8-.6 1.6 0 3 .2 4.4.7 1.4.4 2.6 1 3.8 1.7 1 .7 2 1.5 3 2.5.8 1 1.6 2 2.2 3l-2.2 1.4c-1.3-2.6-2.7-4.4-4.3-5.5-1.5-1-3.3-1.7-5.4-1.7-1.7 0-3.3.3-5 1-1.4.6-2.7 1.5-3.8 2.7-1.2 1.2-2 2.6-2.7 4.3-.7 1.7-1 3.6-1 5.7zm30.7-15.2h5v28.3H75v2H54.5v-30.3zm40 31c-1.6 0-3-.2-4.5-.6-1.5-.4-2.8-1-4-1.6-1.3-.6-2.4-1.4-3.4-2.4s-2-2-2.6-3.3c-.7-1-1.3-2.4-1.6-3.8-.4-1.3-.6-2.8-.6-4.2 0-1.5.2-3 .6-4.2.3-1.2 1-2.5 1.6-3.7.7-1 1.6-2.2 2.6-3 1-1 2-2 3.4-2.6 1.2-.6 2.5-1.2 4-1.5 1.4-.4 3-.6 4.5-.6s3 .2 4.5.6c1.4.3 2.7 1 4 1.5 1.2.7 2.3 1.5 3.3 2.5s2 2 2.6 3c.6 1.3 1.2 2.6 1.6 4 .4 1.2.6 2.6.6 4 0 1.5-.2 3-.6 4.3-.4 1.4-1 2.7-1.7 3.8-.8 1.2-1.7 2.3-2.7 3.3-1 1-2 1.8-3.3 2.5-1.3.8-2.6 1.3-4 1.7-1.5.4-3 .6-4.5.6zm0-1.5c1.7 0 3.2-.4 4.6-1 1.4-.8 2.5-1.8 3.4-3 1-1.4 1.6-3 2-4.7.5-1.7.8-3.6.8-5.7 0-2-.3-4-.7-5.7-.5-1.8-1.2-3.3-2-4.5-1-1.2-2-2.2-3.4-3-1.3-.5-2.8-1-4.5-1-1.8 0-3.4.5-4.7 1-1.3.8-2.5 1.8-3.4 3-1 1.3-1.5 2.8-2 4.6-.5 1.7-.7 3.6-.7 5.7 0 2 .2 4 .7 5.8.5 2 1 3.4 2 4.7 1 1.3 2 2.3 3.4 3 1.3.7 3 1 4.7 1zm31.3-.4c.7 0 1.4 0 2.2-.3.7 0 1.4-.4 2-.8.5-.5 1-1 1.3-1.5.4-.6.5-1.3.5-2 0-1-.2-1.8-.7-2.5-.4-.8-1-1.4-1.8-2-.7-.6-1.6-1.2-2.6-1.7l-3-1.6-3-1.8c-1-.6-2-1.3-2.8-2-.8-.7-1.4-1.5-2-2.4-.4-1-.6-2-.6-3 0-1.2.2-2.3.7-3.3.3-1 1-1.8 1.8-2.6s1.8-1.4 3-1.8c1.3-.4 2.7-.6 4.3-.6 3 0 5.2.6 7 1.8 1.6 1.2 2.8 3 3.5 5.2l-2.6 1.2c-.4-1-.8-1.8-1.3-2.5-.5-.8-1-1.4-1.7-2-.6-.6-1.4-1-2.2-1.3-1-.3-2-.4-3-.4s-1.7 0-2.5.4c-.7.3-1.3.6-1.7 1-.5.5-1 1-1 1.5-.3.5-.5 1-.5 1.6 0 1 .4 1.7 1 2.3.4.7 1 1.3 1.8 2l2.8 1.6 3 1.6c1.2.5 2.2 1 3.2 1.7s2 1.3 2.8 2c.8.8 1.4 1.6 2 2.4.4 1 .7 1.8.7 3 0 1-.3 2.2-.7 3.3-.5 1-1.2 2-2 2.8-1 .7-2 1.4-3.5 1.8-1.2.5-2.8.7-4.6.7-1.5 0-2.8-.2-4-.5-1-.3-2-.8-3-1.4-.8-.6-1.6-1.3-2.2-2.2l-1.5-3 2.7-1c.3.8.7 1.7 1.3 2.5.5.8 1 1.5 2 2 .6.5 1.4 1 2.3 1.2.8.2 1.8.4 2.8.4zm37.2-29v2h-16V138H158v2H147v13.6h16v2h-21v-30.3h21zm5.7 0h10c3.2 0 6 .2 8 .8 2.3.5 4.2 1.5 5.7 2.8 1.7 1.4 3 3 4 5 .7 2 1 4 1 6.2 0 2-.2 4-1 6-.8 1.8-2 3.5-3.4 5-1.5 1.3-3.3 2.4-5.5 3.2-2.2.8-4.7 1.2-7.5 1.2h-11.3v-30.3zm5 28h5.5c1.7 0 3.3-.3 4.8-1 1.5-.4 2.8-1.3 4-2.4 1-1 2-2.5 2.6-4 .6-1.7 1-3.6 1-5.7 0-2-.3-3.6-1-5.2-.6-1.4-1.4-2.8-2.5-4-1-1-2.3-2-3.8-2.5-1.5-.6-3.2-1-5-1h-5.4v26z" fill="#FFF"/><circle stroke="#FFF" stroke-width="3" fill="#8C533F" cx="107.8" cy="10.7" r="9.9"/></g><g transform="translate(2.976 45.867)" stroke-width="4" stroke="#F8E71C"><g fill="#D8D8D8" stroke-linecap="round"><path d="M76.4.2v8.3M80.3 5h-8"/></g><g fill="#D8D8D8" stroke-linecap="round"><path d="M15 93.3v8.3M19 97.2h-8"/></g><g fill="#D8D8D8" stroke-linecap="round"><path d="M285.3 157.8V169M291.2 163.5h-11"/></g><circle cx="4.8" cy="64.4" r="4.8"/><circle cx="310.3" cy="128.8" r="4.8"/></g></g></svg>